<?xml version="1.0" encoding="utf-8"?>
<!-- Generator: Adobe Illustrator 16.2.1, SVG Export Plug-In . SVG Version: 6.00 Build 0)  -->
<!DOCTYPE svg PUBLIC "-//W3C//DTD SVG 1.1//EN" "http://www.w3.org/Graphics/SVG/1.1/DTD/svg11.dtd">
<svg version="1.1" id="Layer_1" xmlns="http://www.w3.org/2000/svg" xmlns:xlink="http://www.w3.org/1999/xlink" x="0px" y="0px"
	 width="800px" height="800px" viewBox="0 0 800 800" enable-background="new 0 0 800 800" xml:space="preserve">
<g>
	<g>
		<path fill="#EB2230" d="M0,34.812V0h12.213C22.287,0,28.08,7.15,28.08,17.434c0,10.282-5.74,17.378-15.814,17.378L0,34.812
			L0,34.812z M19.469,17.434c0-6.474-2.506-10.073-7.203-10.073H8.455v20.093h3.811C16.806,27.453,19.469,23.539,19.469,17.434
			 M65.611,34.812V0H54.546l-6.054,17.851L42.488,0H31.322v34.812h8.455V13.777l7.099,21.035h3.183l7.202-21.034v21.034H65.611z
			 M89.827,34.812l-1.306-5.323H78.5l-1.359,5.323h-9.08L78.394,0h10.179l10.385,34.812H89.827z M83.51,8.768L80.119,22.13h6.73
			L83.51,8.768z"/>
		<path fill="#877E6D" d="M114.218,11.678c0,0-1.807-0.374-3.278-0.374c-2.375,0-3.713,0.953-3.713,3.407v1.329h3.98v2.725h-3.98
			V42.14h-3.344V18.766h-2.676v-2.725h2.676v-1.432c0-5.416,3.544-6.337,7.058-6.337c1.205,0,3.21,0.408,3.914,0.681L114.218,11.678
			z M126.144,15.938c-0.437-0.136-1.171-0.238-2.241-0.238c-2.208,0-4.214,1.431-5.085,2.828v-2.486h-3.411v18.604h3.411V21.323
			c0.837-1.228,2.508-2.489,4.583-2.489c1.036,0,1.605,0.067,2.207,0.274L126.144,15.938z M133.312,9.12l-3.796-0.009l0.035,3.769
			l3.796,0.061L133.312,9.12z M129.755,34.643h3.411V16.041h-3.411V34.643z M152.685,26.158V24.9c0-5.999-2.141-9.303-6.956-9.303
			c-4.85,0-8.496,2.521-8.496,10.05c0,7.225,3.479,9.304,8.962,9.304c2.208,0,5.085-0.342,6.055-0.682l-0.57-2.762
			c-1.003,0.239-3.41,0.512-4.682,0.512c-3.579,0-6.252-0.818-6.354-5.861H152.685z M145.327,18.254c2.375,0,3.812,2.01,3.78,5.385
			h-8.394C140.979,19.923,143.018,18.254,145.327,18.254 M172.35,34.645V22.718c0-3.475-0.333-7.189-5.818-7.189
			c-3.042,0-4.916,1.567-6.255,2.486v-1.975h-3.41v18.604h3.41V20.64c0.836-0.478,3.279-2.079,5.285-2.079
			c2.943,0,3.411,1.841,3.411,4.668v11.416H172.35z M191.533,34.643V8.954h-3.411v7.153c-1.104-0.272-1.64-0.408-3.344-0.408
			c-4.949,0-8.997,3.304-8.997,9.608c0,8.281,4.38,9.609,7.793,9.609c1.969,0,3.41-0.92,4.546-1.875v1.601H191.533z M188.122,30.25
			c-0.802,0.511-2.474,1.737-4.146,1.737c-2.743,0-4.816-1.772-4.816-6.578c0-3.712,1.506-6.78,5.553-6.78
			c1.603,0,2.608,0.103,3.409,0.307L188.122,30.25L188.122,30.25z M201.225,34.988c3.104,0,7.275-1.172,7.275-5.688
			c0-6.172-9.412-4.928-9.412-8.826c0-1.24,0.896-2.206,3.135-2.206c2.105,0,3.484,0.414,4.586,0.656l0.621-2.725
			c-0.895-0.345-2.861-0.792-5.032-0.792c-3.793,0-6.829,1.792-6.829,5.448c0,6.687,9.481,4.927,9.481,8.755
			c0,1.448-1.411,2.412-4.308,2.412c-1.449,0-3.724-0.378-5.173-0.688l-0.446,2.895C196.089,34.54,198.641,34.988,201.225,34.988"/>
	</g>
</g>
<g>
	<path fill="#D6CEC9" d="M4.5,49.5c0,0-4.5,0-4.5,4.5v58.5c0,0,0,4.5,4.5,4.5H63c0,0,4.5,0,4.5-4.5V54c0,0,0-4.5-4.5-4.5H4.5z"/>
	<path fill="#8E7D74" d="M34.307,92.371l16.739-16.02c0.54-0.63,1.529-0.63,2.159,0c0.631,0.54,0.631,1.53,0,2.16L35.386,96.151
		c-0.54,0.54-1.53,0.54-2.16,0L15.406,78.512c-0.63-0.63-0.63-1.62,0-2.16c0.63-0.63,1.62-0.63,2.25,0L34.307,92.371z"/>
</g>
<path fill="#4567B0" d="M23.174,150.451c-0.375,0.526-1.125,1.125-2.1,1.875l-1.05,0.675c-0.6,0.45-0.899,0.899-1.05,1.35
	c-0.074,0.3-0.149,0.375-0.149,1.05v0.149h-4.049v-0.298c0.075-1.425,0.149-2.25,0.674-2.925c0.9-1.05,2.924-2.325,3-2.399
	c0.3-0.226,0.524-0.45,0.75-0.75c0.375-0.525,0.6-1.05,0.6-1.5c0-0.6-0.225-1.2-0.6-1.649c-0.299-0.526-0.976-0.751-1.949-0.751
	c-0.975,0-1.65,0.301-2.025,0.9c-0.375,0.673-0.601,1.351-0.601,2.025v0.15H10.5v-0.15c0.077-2.551,0.977-4.426,2.701-5.475
	c1.049-0.675,2.326-0.974,3.9-0.974c2.024,0,3.674,0.449,5.024,1.423c1.35,0.975,2.023,2.401,2.023,4.351
	C24.148,148.576,23.85,149.551,23.174,150.451 M16.95,162.75L16.95,162.75h-0.074c-1.425-0.076-2.475-1.124-2.475-2.624
	c0.075-1.425,1.125-2.401,2.548-2.401h0.077c1.5,0,2.548,1.051,2.474,2.55C19.5,161.701,18.45,162.75,16.95,162.75 M17.026,135.002
	c-9.524,0.076-17.173,7.95-17.024,17.473c0.15,9.526,7.95,17.1,17.473,17.024c9.524-0.149,17.173-8.024,17.023-17.548
	C34.348,142.426,26.548,134.852,17.026,135.002"/>
<path fill="#FFE2A5" d="M31.5,218.455c0,2.485-2.016,4.5-4.5,4.5H6c-2.484,0-4.5-2.015-4.5-4.5v-21c0-2.485,2.016-4.5,4.5-4.5h21
	c2.484,0,4.5,2.015,4.5,4.5V218.455z"/>
<path fill="#8E7D74" d="M35.988,184.252c-1.658-0.975-3.704-0.487-4.68,1.073l-3.842,6.153c-0.154-0.012-0.309-0.024-0.467-0.024H6
	c-3.313,0.001-5.999,2.686-6,6v21c0.001,3.314,2.687,6,6,6h21c3.313,0,5.999-2.686,6-6v-21c0-0.572-0.085-1.124-0.235-1.648
	l4.296-6.874C38.035,187.276,37.548,185.229,35.988,184.252z M30,218.455c-0.001,0.833-0.333,1.574-0.879,2.121
	c-0.547,0.546-1.289,0.878-2.121,0.879H6c-0.833,0-1.574-0.333-2.121-0.879c-0.545-0.547-0.878-1.289-0.879-2.121v-21
	c0.001-0.833,0.333-1.574,0.879-2.121c0.547-0.546,1.289-0.878,2.121-0.879h19.607l-8.729,13.98l-5.752-7.508
	c-1.171-1.56-3.315-1.852-4.778-0.682c-1.461,1.17-1.755,3.218-0.682,4.777l8.775,11.506c0.584,0.78,1.755,1.268,2.827,1.268
	c1.171,0,2.144-0.585,2.731-1.56L30,200.23V218.455z"/>
<g>
	<path fill="#FFFFFF" d="M80.25,218.455c0,2.485-2.016,4.5-4.5,4.5h-21c-2.484,0-4.5-2.015-4.5-4.5v-21c0-2.485,2.016-4.5,4.5-4.5
		h21c2.484,0,4.5,2.015,4.5,4.5V218.455z"/>
	<path fill="#8E7D74" d="M80.25,218.455h-1.5c-0.001,0.833-0.333,1.574-0.879,2.121c-0.547,0.546-1.289,0.878-2.121,0.879h-21
		c-0.833,0-1.574-0.333-2.121-0.879c-0.545-0.547-0.878-1.289-0.879-2.121v-21c0.001-0.833,0.333-1.574,0.879-2.121
		c0.547-0.546,1.289-0.878,2.121-0.879h21c0.833,0.001,1.574,0.333,2.121,0.879c0.545,0.547,0.878,1.289,0.879,2.121v21H80.25h1.5
		v-21c-0.001-3.314-2.687-5.999-6-6h-21c-3.313,0.001-5.999,2.686-6,6v21c0.001,3.314,2.687,6,6,6h21c3.313,0,5.999-2.686,6-6H80.25
		z"/>
</g>
<circle fill="#FFFFFF" cx="48.062" cy="246.75" r="9.75"/>
<line fill="none" stroke="#FFFFFF" stroke-width="4" stroke-miterlimit="10" x1="11.25" y1="246.75" x2="232.116" y2="246.75"/>
<circle fill="#FFFFFF" cx="232.116" cy="246.75" r="9.75"/>
<circle fill="#FFFFFF" cx="195.306" cy="246.75" r="9.75"/>
<circle fill="#FFFFFF" cx="158.494" cy="246.75" r="9.75"/>
<circle fill="#FFFFFF" cx="121.683" cy="246.75" r="9.75"/>
<circle fill="#FFFFFF" cx="84.872" cy="246.75" r="9.75"/>
<circle fill="#FFFFFF" cx="11.25" cy="246.75" r="9.75"/>
<g>
	<path fill="#FFFFFF" d="M36,266.573v8.276c0,6.549-4.178,10.486-9.603,11.411c-1.526,2.088-3.255,3.495-5.826,4.179v3.938
		C24.428,295.42,27,298.312,27,300H9c0-1.688,2.573-4.58,6.429-5.625v-3.938c-2.571-0.684-4.299-2.09-5.826-4.179
		C4.139,285.334,0,281.397,0,274.848v-8.275h6.429V264h23.143v2.573H36z M7.754,283.004c-0.844-2.169-1.326-4.82-1.326-7.835v-6.026
		H2.572v6.429C2.572,280.072,4.861,281.879,7.754,283.004z M21.536,276.656l3.535-3.615l-4.902-0.724L18,267.656l-2.17,4.66
		l-4.902,0.724l3.535,3.615l-0.844,5.143l4.38-2.41l4.38,2.41L21.536,276.656z M33.428,269.143h-3.857v6.026
		c0,3.015-0.482,5.666-1.326,7.835c2.893-1.125,5.183-2.932,5.183-7.432V269.143z"/>
</g>
<path fill="#FFFFFF" d="M81,282.001C81,291.925,72.924,300,63,300s-18-8.075-18-17.999C45,272.075,53.076,264,63,264
	S81,272.075,81,282.001z M71.678,282.001c0-4.782-3.897-8.679-8.678-8.679s-8.679,3.896-8.679,8.679
	c0,4.781,3.897,8.677,8.679,8.677S71.678,286.782,71.678,282.001z"/>
<path fill="#FFFFFF" d="M126,294.408c0,1.226,0,4.059,0,4.059h-18H90c0,0,0-2.833,0-4.059c0-1.225,3.063-2.987,7.812-4.672
	c4.749-1.763,6.204-3.217,6.204-6.281c0-1.916-1.378-1.302-2.068-4.672c-0.229-1.454-1.531-0.077-1.762-3.294
	c0-1.302,0.689-1.609,0.689-1.609s-0.307-1.916-0.459-3.37c-0.153-1.838,1.072-6.511,7.582-6.511c6.588,0,7.813,4.672,7.583,6.511
	c-0.077,1.454-0.459,3.37-0.459,3.37s0.689,0.306,0.689,1.609c-0.229,3.217-1.532,1.839-1.761,3.294
	c-0.612,3.37-2.068,2.757-2.068,4.672c0,3.064,1.532,4.519,6.204,6.281C122.937,291.421,126,293.184,126,294.408z"/>
<path fill="#FFFFFF" d="M170.25,282.762h-3.75v16.5c0,0.419-0.333,0.75-0.75,0.75h-7.5c-0.417,0-0.75-0.331-0.75-0.75v-12.75h-9
	v12.75c0,0.419-0.333,0.75-0.75,0.75h-7.5c-0.417,0-0.75-0.331-0.75-0.75v-16.5h-3.75c-0.292,0-0.583-0.167-0.708-0.458
	c-0.083-0.292-0.042-0.583,0.167-0.833l17.25-17.252c0.292-0.292,0.792-0.292,1.083,0l17.251,17.252
	c0.208,0.25,0.25,0.542,0.166,0.833C170.833,282.595,170.541,282.762,170.25,282.762z"/>
<g>
	<path fill="#D5CEC8" d="M24.991,319.026L9.147,334.869c-0.071,0.07-0.143,0.105-0.213,0.141l-8.046,3.204
		c-0.107,0.037-0.177,0.037-0.249,0.037c-0.178,0-0.32-0.07-0.463-0.177c-0.178-0.176-0.213-0.46-0.143-0.709l3.204-8.047
		c0.036-0.072,0.071-0.141,0.143-0.214l15.843-15.843L24.991,319.026z M30.189,311.087l-3.026-3.026
		c-0.783-0.749-1.993-0.749-2.741,0l-3.275,3.275l5.767,5.766l3.275-3.273C30.937,313.08,30.937,311.87,30.189,311.087z"/>
</g>
<g>
	<path fill="#FFE2A5" d="M24.75,415.875c-13.027,0-23.625-10.598-23.625-23.625c0-13.027,10.598-23.625,23.625-23.625h67.5
		c13.027,0,23.625,10.598,23.625,23.625c0,13.027-10.598,23.625-23.625,23.625H24.75z"/>
	<path fill="#D6CEC9" d="M92.25,369.75c12.426,0,22.5,10.074,22.5,22.5c0,12.426-10.074,22.5-22.5,22.5h-67.5
		c-12.426,0-22.5-10.074-22.5-22.5c0-12.426,10.074-22.5,22.5-22.5H92.25 M92.25,367.5h-67.5C11.103,367.5,0,378.603,0,392.25
		S11.103,417,24.75,417h67.5c13.647,0,24.75-11.103,24.75-24.75S105.897,367.5,92.25,367.5z"/>
	<circle fill="#FFFFFF" cx="91.5" cy="392.25" r="18.75"/>
	<path fill="#D6CEC9" d="M110.25,392.25h-1.125c-0.001,4.871-1.971,9.27-5.162,12.463c-3.193,3.191-7.592,5.161-12.463,5.162
		c-4.871-0.001-9.269-1.971-12.463-5.162c-3.191-3.193-5.161-7.592-5.162-12.463c0.001-4.871,1.971-9.27,5.162-12.463
		c3.193-3.191,7.592-5.161,12.463-5.162c4.871,0.001,9.269,1.971,12.463,5.162c3.191,3.193,5.161,7.592,5.162,12.463H110.25h1.125
		c-0.001-10.977-8.898-19.874-19.875-19.875c-10.977,0.001-19.874,8.898-19.875,19.875c0.001,10.977,8.898,19.874,19.875,19.875
		c10.977-0.001,19.874-8.898,19.875-19.875H110.25z"/>
	<g>
		<path fill="#8D7C74" d="M29.4,400.515c-1.493,0-2.794-0.203-3.902-0.608c-1.109-0.406-2.033-0.99-2.771-1.752
			s-1.292-1.688-1.658-2.777c-0.368-1.09-0.551-2.314-0.551-3.673c0-1.335,0.215-2.542,0.645-3.614
			c0.429-1.074,1.047-1.988,1.852-2.742c0.804-0.754,1.785-1.333,2.941-1.74c1.156-0.405,2.456-0.608,3.902-0.608
			c1.539,0,2.865,0.219,3.979,0.656c1.113,0.438,2.028,1.045,2.748,1.822c0.719,0.777,1.248,1.703,1.588,2.771
			c0.34,1.07,0.51,2.236,0.51,3.504c0,1.352-0.2,2.568-0.598,3.65c-0.398,1.08-0.99,2.002-1.775,2.76s-1.757,1.34-2.913,1.746
			C32.239,400.311,30.907,400.515,29.4,400.515z M29.471,397.292c0.938,0,1.729-0.141,2.373-0.421
			c0.644-0.281,1.166-0.673,1.564-1.172c0.398-0.5,0.686-1.089,0.861-1.768c0.175-0.68,0.264-1.414,0.264-2.204
			c0-0.789-0.094-1.519-0.281-2.197c-0.188-0.675-0.481-1.26-0.879-1.752c-0.398-0.492-0.907-0.876-1.523-1.154
			c-0.617-0.276-1.356-0.416-2.215-0.416c-0.898,0-1.664,0.14-2.296,0.416c-0.633,0.278-1.148,0.661-1.546,1.148
			c-0.398,0.486-0.69,1.066-0.873,1.734c-0.184,0.67-0.275,1.393-0.275,2.174c0,0.773,0.089,1.5,0.269,2.179
			c0.179,0.678,0.463,1.274,0.85,1.788c0.387,0.512,0.885,0.914,1.494,1.205C27.865,397.145,28.604,397.292,29.471,397.292z"/>
	</g>
	<g>
		<path fill="#8D7C74" d="M42.787,383.253h4.723l6.668,11.637l-0.117-2.049v-9.586h4.079v16.969h-4.863l-6.527-11.355l0.117,2.049
			v9.305h-4.08V383.253z"/>
	</g>
</g>
<g>
	<path fill="#EDEBE8" d="M149.25,415.875c-13.027,0-23.625-10.598-23.625-23.625c0-13.027,10.598-23.625,23.625-23.625h67.5
		c13.027,0,23.625,10.598,23.625,23.625c0,13.027-10.598,23.625-23.625,23.625H149.25z"/>
	<path fill="#D6CEC9" d="M216.75,369.75c12.426,0,22.5,10.074,22.5,22.5c0,12.426-10.074,22.5-22.5,22.5h-67.5
		c-12.426,0-22.5-10.074-22.5-22.5c0-12.426,10.074-22.5,22.5-22.5H216.75 M216.75,367.5h-67.5c-13.647,0-24.75,11.103-24.75,24.75
		S135.603,417,149.25,417h67.5c13.647,0,24.75-11.103,24.75-24.75S230.397,367.5,216.75,367.5z"/>
	<circle fill="#FFFFFF" cx="149.138" cy="392.25" r="18.75"/>
	<path fill="#D6CEC9" d="M167.888,392.25h-1.125c0,4.871-1.971,9.27-5.163,12.463c-3.193,3.191-7.592,5.161-12.462,5.162
		c-4.871-0.001-9.269-1.971-12.463-5.162c-3.191-3.193-5.161-7.592-5.162-12.463c0.001-4.871,1.971-9.27,5.162-12.463
		c3.194-3.191,7.592-5.161,12.463-5.162c4.871,0.001,9.269,1.971,12.462,5.162c3.192,3.193,5.162,7.592,5.163,12.463H167.888h1.125
		c0-10.977-8.898-19.874-19.875-19.875c-10.977,0.001-19.874,8.898-19.875,19.875c0.001,10.977,8.898,19.874,19.875,19.875
		c10.977-0.001,19.875-8.898,19.875-19.875H167.888z"/>
	<g>
		<path fill="#8D7C74" d="M182.988,400.515c-1.492,0-2.793-0.203-3.902-0.608c-1.109-0.406-2.034-0.99-2.771-1.752
			s-1.292-1.688-1.658-2.777c-0.368-1.09-0.55-2.314-0.55-3.673c0-1.335,0.214-2.542,0.644-3.614
			c0.429-1.074,1.047-1.988,1.852-2.742c0.804-0.754,1.785-1.333,2.942-1.74c1.156-0.405,2.456-0.608,3.902-0.608
			c1.539,0,2.865,0.219,3.979,0.656c1.113,0.438,2.029,1.045,2.748,1.822c0.718,0.777,1.248,1.703,1.588,2.771
			c0.339,1.07,0.51,2.236,0.51,3.504c0,1.352-0.2,2.568-0.598,3.65c-0.398,1.08-0.99,2.002-1.775,2.76
			c-0.785,0.758-1.756,1.34-2.912,1.746C185.828,400.311,184.496,400.515,182.988,400.515z M183.059,397.292
			c0.938,0,1.729-0.141,2.373-0.421c0.644-0.281,1.166-0.673,1.564-1.172c0.398-0.5,0.686-1.089,0.861-1.768
			c0.175-0.68,0.264-1.414,0.264-2.204c0-0.789-0.094-1.519-0.281-2.197c-0.188-0.675-0.481-1.26-0.879-1.752
			c-0.398-0.492-0.907-0.876-1.523-1.154c-0.617-0.276-1.356-0.416-2.215-0.416c-0.898,0-1.664,0.14-2.296,0.416
			c-0.633,0.278-1.148,0.661-1.546,1.148c-0.398,0.486-0.69,1.066-0.873,1.734c-0.184,0.67-0.275,1.393-0.275,2.174
			c0,0.773,0.089,1.5,0.27,2.179c0.179,0.678,0.463,1.274,0.85,1.788c0.387,0.512,0.885,0.914,1.494,1.205
			C181.454,397.145,182.191,397.292,183.059,397.292z"/>
	</g>
	<g>
		<path fill="#8D7C74" d="M196.375,383.253h11.848v3.188h-7.769v4.207h7.242v2.953h-7.242v6.621h-4.079V383.253z"/>
		<path fill="#8D7C74" d="M212.212,383.253h11.848v3.188h-7.769v4.207h7.242v2.953h-7.242v6.621h-4.079V383.253z"/>
	</g>
</g>
<g>
	<path fill="#ED1B2E" d="M31,458c0-8.56-6.94-15.5-15.5-15.5S0,449.44,0,458c0,2.689,0.687,5.216,1.89,7.42
		c0-0.001-0.001-0.001-0.001-0.002c4.178,7.899,10.142,18.951,12.599,22.418c0.492,0.693,0.612,1.082,1.012,1.082
		s0.495-0.36,0.958-1.007c2.423-3.379,8.444-14.535,12.653-22.493c0,0.001,0,0.001-0.001,0.002C30.313,463.216,31,460.689,31,458z"
		/>
	<circle fill="#F15A4A" cx="15.5" cy="457.919" r="12.321"/>
</g>
</svg>
