<?xml version="1.0" encoding="utf-8"?>
<!-- Generator: Adobe Illustrator 16.2.0, SVG Export Plug-In . SVG Version: 6.00 Build 0)  -->
<!DOCTYPE svg PUBLIC "-//W3C//DTD SVG 1.1//EN" "http://www.w3.org/Graphics/SVG/1.1/DTD/svg11.dtd">
<svg version="1.1" id="Layer_1" xmlns="http://www.w3.org/2000/svg" xmlns:xlink="http://www.w3.org/1999/xlink" x="0px" y="0px"
	 width="800px" height="800px" viewBox="0 0 800 800" enable-background="new 0 0 800 800" xml:space="preserve">
<g>
	<g>
		<path fill="#EB2230" d="M0,46.417V0h16.284C29.716,0,37.44,9.533,37.44,23.245c0,13.709-7.653,23.171-21.085,23.171L0,46.417
			L0,46.417z M25.958,23.245c0-8.632-3.341-13.431-9.604-13.431h-5.081v26.791h5.081C22.408,36.604,25.958,31.385,25.958,23.245
			 M87.481,46.417V0H72.728l-8.072,23.801L56.651,0H41.762v46.417h11.273V18.37L62.5,46.417h4.244l9.603-28.046v28.046H87.481z
			 M119.769,46.417l-1.741-7.098h-13.361l-1.812,7.098H90.748L104.525,0h13.572l13.847,46.417H119.769z M111.347,11.691
			l-4.522,17.816h8.975L111.347,11.691z"/>
		<path fill="#877E6D" d="M152.29,15.571c0,0-2.409-0.499-4.37-0.499c-3.166,0-4.951,1.271-4.951,4.543v1.772h5.307v3.634h-5.307
			v31.165h-4.459V25.021h-3.568v-3.634h3.568v-1.909c0-7.221,4.726-8.449,9.41-8.449c1.606,0,4.28,0.544,5.218,0.907L152.29,15.571z
			 M168.192,21.25c-0.582-0.181-1.562-0.318-2.988-0.318c-2.944,0-5.618,1.908-6.779,3.771v-3.315h-4.548v24.806h4.548V28.431
			c1.115-1.637,3.344-3.319,6.11-3.319c1.381,0,2.141,0.09,2.942,0.365L168.192,21.25z M177.75,12.16l-5.061-0.012l0.047,5.025
			l5.061,0.081L177.75,12.16z M173.007,46.19h4.547V21.387h-4.547V46.19z M203.579,34.878V33.2c0-7.998-2.854-12.403-9.274-12.403
			c-6.466,0-11.327,3.36-11.327,13.4c0,9.633,4.639,12.405,11.95,12.405c2.944,0,6.78-0.456,8.073-0.909l-0.76-3.683
			c-1.338,0.318-4.547,0.683-6.243,0.683c-4.772,0-8.337-1.091-8.472-7.815H203.579z M193.769,24.339c3.166,0,5.082,2.68,5.04,7.18
			h-11.192C187.971,26.564,190.691,24.339,193.769,24.339 M229.8,46.193V30.291c0-4.633-0.444-9.585-7.758-9.585
			c-4.057,0-6.554,2.089-8.34,3.314v-2.633h-4.547v24.806h4.547V27.52c1.115-0.637,4.372-2.772,7.046-2.772
			c3.924,0,4.548,2.455,4.548,6.224v15.221H229.8z M255.378,46.19V11.938h-4.549v9.538c-1.471-0.363-2.186-0.544-4.458-0.544
			c-6.599,0-11.996,4.405-11.996,12.811c0,11.042,5.84,12.813,10.391,12.813c2.626,0,4.547-1.227,6.062-2.5v2.134H255.378z
			 M250.829,40.333c-1.068,0.681-3.298,2.316-5.528,2.316c-3.658,0-6.422-2.363-6.422-8.77c0-4.95,2.008-9.04,7.403-9.04
			c2.138,0,3.478,0.136,4.546,0.409L250.829,40.333L250.829,40.333z M268.3,46.651c4.138,0,9.7-1.563,9.7-7.584
			c0-8.229-12.549-6.571-12.549-11.767c0-1.654,1.195-2.942,4.181-2.942c2.807,0,4.645,0.552,6.114,0.875l0.828-3.633
			c-1.193-0.46-3.814-1.056-6.709-1.056c-5.058,0-9.104,2.39-9.104,7.264c0,8.916,12.641,6.569,12.641,11.674
			c0,1.93-1.882,3.215-5.745,3.215c-1.931,0-4.964-0.504-6.896-0.917l-0.596,3.86C261.452,46.053,264.854,46.651,268.3,46.651"/>
	</g>
</g>
<g>
	<path fill="#D6CEC9" d="M6,66c0,0-6,0-6,6v78c0,0,0,6,6,6h78c0,0,6,0,6-6V72c0,0,0-6-6-6H6z"/>
	<path fill="#8E7D74" d="M45.742,123.161l22.319-21.359c0.72-0.84,2.039-0.84,2.879,0c0.841,0.72,0.841,2.04,0,2.88l-23.759,23.519
		c-0.72,0.72-2.04,0.72-2.88,0l-23.759-23.519c-0.84-0.84-0.84-2.16,0-2.88c0.84-0.84,2.16-0.84,3,0L45.742,123.161z"/>
</g>
<path fill="#4567B0" d="M30.899,200.601c-0.5,0.701-1.5,1.5-2.8,2.5l-1.4,0.9c-0.799,0.6-1.199,1.199-1.399,1.8
	c-0.099,0.399-0.2,0.5-0.2,1.399v0.199h-5.398v-0.398c0.1-1.9,0.199-3,0.899-3.9c1.2-1.4,3.899-3.1,3.999-3.199
	c0.4-0.301,0.7-0.6,1-1c0.5-0.7,0.8-1.4,0.8-2c0-0.8-0.3-1.6-0.8-2.199c-0.398-0.702-1.3-1.002-2.599-1.002
	c-1.3,0-2.2,0.401-2.7,1.201c-0.5,0.898-0.801,1.801-0.801,2.7v0.201H14v-0.201c0.102-3.401,1.302-5.901,3.601-7.299
	c1.399-0.9,3.101-1.299,5.2-1.299c2.699,0,4.898,0.599,6.699,1.898c1.8,1.299,2.698,3.201,2.698,5.801
	C32.198,198.101,31.8,199.402,30.899,200.601 M22.6,217L22.6,217h-0.099c-1.9-0.101-3.3-1.499-3.3-3.499
	c0.1-1.9,1.5-3.201,3.398-3.201h0.102c2,0,3.398,1.4,3.299,3.399C26,215.601,24.6,217,22.6,217 M22.701,180.003
	C10.002,180.104-0.196,190.602,0.003,203.3c0.2,12.701,10.6,22.799,23.297,22.699c12.699-0.199,22.897-10.699,22.697-23.398
	C45.797,189.901,35.398,179.803,22.701,180.003"/>
<path fill="#FFE2A5" d="M42,291.273c0,3.313-2.688,6-6,6H8c-3.312,0-6-2.687-6-6v-28c0-3.313,2.688-6,6-6h28c3.312,0,6,2.687,6,6
	V291.273z"/>
<path fill="#8E7D74" d="M47.984,245.67c-2.211-1.3-4.939-0.649-6.24,1.431l-5.123,8.204c-0.206-0.016-0.412-0.032-0.622-0.032H8
	c-4.418,0.001-7.999,3.581-8,8v28c0.001,4.419,3.582,7.999,8,8h28c4.418-0.001,7.999-3.581,8-8v-28c0-0.763-0.114-1.499-0.313-2.198
	l5.728-9.165C50.714,249.701,50.064,246.971,47.984,245.67z M40,291.273c-0.001,1.11-0.445,2.098-1.172,2.828
	c-0.73,0.728-1.718,1.171-2.828,1.172H8c-1.11-0.001-2.098-0.444-2.828-1.172c-0.727-0.73-1.171-1.718-1.172-2.828v-28
	c0.001-1.11,0.445-2.098,1.172-2.828c0.73-0.728,1.718-1.171,2.828-1.172h26.143l-11.639,18.64l-7.67-10.011
	c-1.561-2.08-4.42-2.47-6.371-0.91c-1.949,1.56-2.34,4.29-0.91,6.37l11.701,15.341c0.779,1.04,2.34,1.69,3.769,1.69
	c1.561,0,2.859-0.78,3.641-2.08L40,266.974V291.273z"/>
<g>
	<path fill="#FFFFFF" d="M107,291.273c0,3.313-2.688,6-6,6H73c-3.312,0-6-2.687-6-6v-28c0-3.313,2.688-6,6-6h28c3.312,0,6,2.687,6,6
		V291.273z"/>
	<path fill="#8E7D74" d="M107,291.273h-2c-0.001,1.11-0.445,2.098-1.172,2.828c-0.73,0.728-1.718,1.171-2.828,1.172H73
		c-1.11-0.001-2.098-0.444-2.828-1.172c-0.727-0.73-1.171-1.718-1.172-2.828v-28c0.001-1.11,0.445-2.098,1.172-2.828
		c0.73-0.728,1.718-1.171,2.828-1.172h28c1.11,0.001,2.098,0.444,2.828,1.172c0.727,0.73,1.171,1.718,1.172,2.828v28H107h2v-28
		c-0.001-4.419-3.582-7.999-8-8H73c-4.418,0.001-7.999,3.581-8,8v28c0.001,4.419,3.582,7.999,8,8h28c4.418-0.001,7.999-3.581,8-8
		H107z"/>
</g>
<circle fill="#FFFFFF" cx="64.082" cy="329" r="13"/>
<line fill="none" stroke="#FFFFFF" stroke-width="4" stroke-miterlimit="10" x1="15" y1="329" x2="309.488" y2="329"/>
<circle fill="#FFFFFF" cx="309.488" cy="329" r="13"/>
<circle fill="#FFFFFF" cx="260.407" cy="329" r="13"/>
<circle fill="#FFFFFF" cx="211.325" cy="329" r="13"/>
<circle fill="#FFFFFF" cx="162.244" cy="329" r="13"/>
<circle fill="#FFFFFF" cx="113.163" cy="329" r="13"/>
<circle fill="#FFFFFF" cx="15" cy="329" r="13"/>
<g>
	<path fill="#FFFFFF" d="M48,355.43v11.035c0,8.732-5.571,13.982-12.803,15.214c-2.036,2.785-4.34,4.66-7.768,5.572v5.25
		C32.571,393.893,36,397.75,36,400H12c0-2.25,3.43-6.107,8.572-7.5v-5.25c-3.428-0.912-5.732-2.787-7.768-5.572
		C5.518,380.446,0,375.196,0,366.464V355.43h8.572V352h30.856v3.43H48z M10.339,377.339c-1.125-2.893-1.768-6.428-1.768-10.447
		v-8.035H3.429v8.572C3.429,373.429,6.482,375.839,10.339,377.339z M28.715,368.875l4.713-4.82l-6.536-0.965L24,356.875
		l-2.893,6.214l-6.536,0.965l4.713,4.82l-1.125,6.857l5.84-3.213l5.84,3.213L28.715,368.875z M44.571,358.857h-5.143v8.035
		c0,4.019-0.643,7.554-1.768,10.447c3.857-1.5,6.911-3.91,6.911-9.91V358.857z"/>
</g>
<path fill="#FFFFFF" d="M108,376.001C108,389.233,97.232,400,84,400s-24-10.767-24-23.999C60,362.767,70.768,352,84,352
	S108,362.767,108,376.001z M95.571,376.001c0-6.376-5.196-11.572-11.571-11.572s-11.572,5.195-11.572,11.572
	c0,6.375,5.197,11.57,11.572,11.57S95.571,382.376,95.571,376.001z"/>
<path fill="#FFFFFF" d="M168,392.544c0,1.635,0,5.412,0,5.412h-24h-24c0,0,0-3.777,0-5.412c0-1.633,4.084-3.982,10.417-6.229
	c6.332-2.35,8.271-4.289,8.271-8.375c0-2.554-1.838-1.736-2.757-6.229c-0.306-1.939-2.042-0.102-2.349-4.392
	c0-1.736,0.919-2.145,0.919-2.145s-0.408-2.554-0.612-4.493c-0.204-2.451,1.43-8.681,10.11-8.681c8.784,0,10.417,6.229,10.111,8.681
	c-0.102,1.939-0.613,4.493-0.613,4.493s0.919,0.408,0.919,2.145c-0.306,4.29-2.042,2.452-2.348,4.392
	c-0.817,4.493-2.758,3.676-2.758,6.229c0,4.086,2.042,6.025,8.272,8.375C163.915,388.562,168,390.911,168,392.544z"/>
<path fill="#FFFFFF" d="M227,377.016h-5v22c0,0.558-0.444,1-1,1h-10c-0.556,0-1-0.442-1-1v-17h-12v17c0,0.558-0.444,1-1,1h-10
	c-0.556,0-1-0.442-1-1v-22h-5c-0.389,0-0.778-0.223-0.944-0.611c-0.111-0.389-0.056-0.777,0.222-1.111l23-23.002
	c0.389-0.389,1.056-0.389,1.444,0l23.001,23.002c0.278,0.334,0.333,0.723,0.222,1.111C227.777,376.793,227.388,377.016,227,377.016z
	"/>
<g>
	<path fill="#D5CEC8" d="M33.321,425.368l-21.124,21.124c-0.095,0.094-0.19,0.141-0.285,0.188l-10.728,4.271
		C1.042,451,0.948,451,0.853,451c-0.237,0-0.427-0.094-0.617-0.236c-0.238-0.236-0.285-0.615-0.19-0.947l4.272-10.729
		c0.047-0.096,0.095-0.188,0.19-0.285l21.124-21.124L33.321,425.368z M40.252,414.782l-4.034-4.034
		c-1.045-0.998-2.658-0.998-3.655,0l-4.367,4.367l7.689,7.688l4.367-4.365C41.249,417.44,41.249,415.826,40.252,414.782z"/>
</g>
<g>
	<path fill="#FFE2A5" d="M33,554.5c-17.369,0-31.5-14.131-31.5-31.5s14.131-31.5,31.5-31.5h90c17.369,0,31.5,14.131,31.5,31.5
		s-14.131,31.5-31.5,31.5H33z"/>
	<path fill="#D6CEC9" d="M123,493c16.568,0,30,13.432,30,30s-13.432,30-30,30H33c-16.568,0-30-13.432-30-30s13.432-30,30-30H123
		 M123,490H33c-18.196,0-33,14.804-33,33s14.804,33,33,33h90c18.196,0,33-14.804,33-33S141.196,490,123,490z"/>
	<circle fill="#FFFFFF" cx="122" cy="523" r="25"/>
	<path fill="#D6CEC9" d="M147,523h-1.5c-0.001,6.494-2.628,12.359-6.883,16.617c-4.257,4.255-10.123,6.882-16.617,6.883
		c-6.494-0.001-12.359-2.628-16.617-6.883c-4.255-4.258-6.882-10.123-6.883-16.617c0.001-6.494,2.628-12.359,6.883-16.617
		c4.257-4.255,10.123-6.882,16.617-6.883c6.494,0.001,12.359,2.628,16.617,6.883c4.255,4.258,6.882,10.123,6.883,16.617H147h1.5
		c-0.001-14.636-11.864-26.499-26.5-26.5c-14.636,0.001-26.499,11.864-26.5,26.5c0.001,14.636,11.864,26.499,26.5,26.5
		c14.636-0.001,26.499-11.864,26.5-26.5H147z"/>
	<g>
		<path fill="#8D7C74" d="M39.2,534.02c-1.99,0-3.725-0.271-5.203-0.812c-1.479-0.541-2.711-1.32-3.695-2.336
			c-0.984-1.016-1.722-2.25-2.211-3.703c-0.49-1.453-0.734-3.086-0.734-4.897c0-1.78,0.286-3.389,0.859-4.819
			c0.572-1.433,1.396-2.65,2.469-3.656c1.072-1.005,2.38-1.778,3.922-2.32c1.541-0.541,3.275-0.812,5.203-0.812
			c2.052,0,3.82,0.292,5.305,0.875c1.484,0.584,2.705,1.394,3.664,2.43c0.958,1.037,1.664,2.271,2.117,3.695
			c0.453,1.428,0.68,2.982,0.68,4.672c0,1.803-0.266,3.425-0.797,4.867c-0.531,1.441-1.32,2.67-2.367,3.68
			c-1.047,1.011-2.342,1.787-3.883,2.328C42.986,533.748,41.21,534.02,39.2,534.02z M39.294,529.723c1.25,0,2.305-0.188,3.164-0.562
			s1.555-0.896,2.086-1.562c0.531-0.666,0.914-1.452,1.148-2.357c0.234-0.906,0.352-1.886,0.352-2.938
			c0-1.052-0.125-2.026-0.375-2.93c-0.25-0.9-0.641-1.68-1.172-2.336c-0.531-0.656-1.209-1.169-2.031-1.539
			c-0.823-0.369-1.808-0.555-2.953-0.555c-1.198,0-2.219,0.186-3.062,0.555c-0.844,0.37-1.531,0.881-2.062,1.531
			c-0.531,0.649-0.92,1.422-1.164,2.312c-0.245,0.893-0.367,1.857-0.367,2.898c0,1.03,0.119,2,0.359,2.905
			c0.239,0.905,0.617,1.7,1.133,2.384c0.516,0.683,1.18,1.219,1.992,1.607C37.154,529.526,38.138,529.723,39.294,529.723z"/>
	</g>
	<g>
		<path fill="#8D7C74" d="M57.05,511.004h6.297l8.891,15.516l-0.156-2.732v-12.781h5.438v22.625h-6.484l-8.703-15.141l0.156,2.732
			v12.406H57.05V511.004z"/>
	</g>
</g>
<g>
	<path fill="#EDEBE8" d="M199,554.5c-17.369,0-31.5-14.131-31.5-31.5s14.131-31.5,31.5-31.5h90c17.369,0,31.5,14.131,31.5,31.5
		s-14.131,31.5-31.5,31.5H199z"/>
	<path fill="#D6CEC9" d="M289,493c16.568,0,30,13.432,30,30s-13.432,30-30,30h-90c-16.568,0-30-13.432-30-30s13.432-30,30-30H289
		 M289,490h-90c-18.196,0-33,14.804-33,33s14.804,33,33,33h90c18.196,0,33-14.804,33-33S307.196,490,289,490z"/>
	<circle fill="#FFFFFF" cx="198.851" cy="523" r="25"/>
	<path fill="#D6CEC9" d="M223.851,523h-1.5c-0.001,6.494-2.628,12.359-6.883,16.617c-4.258,4.255-10.123,6.882-16.617,6.883
		c-6.494-0.001-12.359-2.628-16.617-6.883c-4.255-4.258-6.882-10.123-6.883-16.617c0.001-6.494,2.628-12.359,6.883-16.617
		c4.258-4.255,10.123-6.882,16.617-6.883c6.494,0.001,12.359,2.628,16.617,6.883c4.255,4.258,6.882,10.123,6.883,16.617H223.851h1.5
		c-0.001-14.636-11.864-26.499-26.5-26.5c-14.636,0.001-26.499,11.864-26.5,26.5c0.001,14.636,11.864,26.499,26.5,26.5
		c14.636-0.001,26.499-11.864,26.5-26.5H223.851z"/>
	<g>
		<path fill="#8D7C74" d="M243.984,534.02c-1.99,0-3.725-0.271-5.203-0.812c-1.479-0.541-2.711-1.32-3.695-2.336
			s-1.722-2.25-2.211-3.703c-0.49-1.453-0.734-3.086-0.734-4.897c0-1.78,0.286-3.389,0.859-4.819
			c0.572-1.433,1.396-2.65,2.469-3.656c1.072-1.005,2.38-1.778,3.922-2.32c1.541-0.541,3.275-0.812,5.203-0.812
			c2.052,0,3.82,0.292,5.305,0.875c1.484,0.584,2.705,1.394,3.664,2.43c0.958,1.037,1.664,2.271,2.117,3.695
			c0.453,1.428,0.68,2.982,0.68,4.672c0,1.803-0.266,3.425-0.797,4.867c-0.531,1.441-1.32,2.67-2.367,3.68
			c-1.047,1.011-2.342,1.787-3.883,2.328C247.771,533.748,245.994,534.02,243.984,534.02z M244.078,529.723
			c1.25,0,2.305-0.188,3.164-0.562c0.859-0.374,1.555-0.896,2.086-1.562c0.531-0.666,0.914-1.452,1.148-2.357
			c0.234-0.906,0.352-1.886,0.352-2.938c0-1.052-0.125-2.026-0.375-2.93c-0.25-0.9-0.641-1.68-1.172-2.336
			c-0.531-0.656-1.209-1.169-2.031-1.539c-0.823-0.369-1.808-0.555-2.953-0.555c-1.198,0-2.219,0.186-3.062,0.555
			c-0.844,0.37-1.531,0.881-2.062,1.531c-0.531,0.649-0.92,1.422-1.164,2.312c-0.245,0.893-0.367,1.857-0.367,2.898
			c0,1.03,0.119,2,0.359,2.905c0.239,0.905,0.617,1.7,1.133,2.384c0.516,0.683,1.18,1.219,1.992,1.607
			C241.938,529.526,242.922,529.723,244.078,529.723z"/>
	</g>
	<g>
		<path fill="#8D7C74" d="M261.834,511.004h15.797v4.25h-10.359v5.609h9.656v3.938h-9.656v8.828h-5.438V511.004z"/>
		<path fill="#8D7C74" d="M282.949,511.004h15.797v4.25h-10.359v5.609h9.656v3.938h-9.656v8.828h-5.438V511.004z"/>
	</g>
</g>
<g>
	<path fill="#ED1B2E" d="M41.333,610.667c0-11.413-9.253-20.667-20.667-20.667S0,599.254,0,610.667c0,3.585,0.915,6.954,2.52,9.894
		c0-0.002-0.001-0.002-0.002-0.004c5.571,10.533,13.523,25.269,16.799,29.89c0.656,0.925,0.816,1.444,1.349,1.444
		s0.659-0.481,1.277-1.343c3.23-4.505,11.259-19.38,16.871-29.991c0,0.002-0.001,0.002-0.002,0.004
		C40.418,617.621,41.333,614.252,41.333,610.667z"/>
	<circle fill="#F15A4A" cx="20.667" cy="610.558" r="16.428"/>
</g>
</svg>
