<?xml version="1.0" encoding="utf-8"?>
<!-- Generator: Adobe Illustrator 16.2.0, SVG Export Plug-In . SVG Version: 6.00 Build 0)  -->
<!DOCTYPE svg PUBLIC "-//W3C//DTD SVG 1.1//EN" "http://www.w3.org/Graphics/SVG/1.1/DTD/svg11.dtd">
<svg version="1.1" id="Layer_1" xmlns="http://www.w3.org/2000/svg" xmlns:xlink="http://www.w3.org/1999/xlink" x="0px" y="0px"
	 width="800px" height="800px" viewBox="0 0 800 800" enable-background="new 0 0 800 800" xml:space="preserve">
<path fill="#8F7E74" d="M726.787,24.199c-31.488-18.512-70.35-9.242-88.875,20.383l-72.963,116.844
	c-2.936-0.229-5.869-0.459-8.859-0.459H157.322c-62.921,0.014-113.923,51.002-113.938,113.938v398.788
	c0.014,62.921,51.016,113.909,113.938,113.938h398.781c62.922-0.028,113.924-51.017,113.938-113.938V274.904
	c0-10.869-1.613-21.349-4.451-31.301l81.572-130.53C765.66,81.613,756.412,42.732,726.787,24.199z M613.072,673.692
	c-0.014,15.8-6.343,29.875-16.69,40.278c-10.403,10.361-24.479,16.662-40.278,16.69H157.322
	c-15.807-0.028-29.882-6.329-40.279-16.69c-10.354-10.403-16.676-24.479-16.69-40.278V274.904
	c0.014-15.807,6.335-29.882,16.69-40.278c10.396-10.369,24.472-16.676,40.279-16.69h372.327L363.89,483.412L254.653,340.83
	c-22.233-29.618-62.95-35.174-90.738-12.956c-27.754,22.211-33.325,61.1-12.956,90.724l166.644,218.487
	c11.099,14.812,33.324,24.061,53.679,24.061c22.232,0,40.716-11.099,51.857-29.625l189.934-303.904V673.692z"/>
</svg>
