<?xml version="1.0" encoding="utf-8"?>
<!-- Generator: Adobe Illustrator 16.2.1, SVG Export Plug-In . SVG Version: 6.00 Build 0)  -->
<!DOCTYPE svg PUBLIC "-//W3C//DTD SVG 1.1//EN" "http://www.w3.org/Graphics/SVG/1.1/DTD/svg11.dtd">
<svg version="1.1" id="Layer_1" xmlns="http://www.w3.org/2000/svg" xmlns:xlink="http://www.w3.org/1999/xlink" x="0px" y="0px"
	 width="800px" height="800px" viewBox="0 0 800 800" enable-background="new 0 0 800 800" xml:space="preserve">
<path fill="#EB2230" d="M19.376,532.123V264.689h93.821c77.391,0,121.893,54.927,121.893,133.927
	c0,78.989-44.093,133.507-121.484,133.507H19.376L19.376,532.123z M168.938,398.616c0-49.735-19.25-77.384-55.335-77.384H84.325
	v154.354h29.277C148.483,475.587,168.938,445.52,168.938,398.616 M523.409,532.123V264.689h-85.006l-46.505,137.13l-46.123-137.13
	h-85.782v267.434h64.949V370.528l54.532,161.595h24.453l55.324-161.587v161.587H523.409z M709.43,532.123l-10.022-40.895h-76.986
	l-10.442,40.895h-69.754l79.379-267.434h78.193l79.785,267.434H709.43z M660.906,332.047l-26.047,102.646h51.704L660.906,332.047z"
	/>
</svg>
