<?xml version="1.0" encoding="utf-8"?>
<!-- Generator: Adobe Illustrator 16.2.1, SVG Export Plug-In . SVG Version: 6.00 Build 0)  -->
<!DOCTYPE svg PUBLIC "-//W3C//DTD SVG 1.1//EN" "http://www.w3.org/Graphics/SVG/1.1/DTD/svg11.dtd">
<svg version="1.1" id="Layer_1" xmlns="http://www.w3.org/2000/svg" xmlns:xlink="http://www.w3.org/1999/xlink" x="0px" y="0px"
	 width="800px" height="800px" viewBox="0 0 800 800" enable-background="new 0 0 800 800" xml:space="preserve">
<path fill="#877E6D" d="M110.938,302.36c0,0-12.804-2.65-23.224-2.65c-16.824,0-26.31,6.75-26.31,24.142v9.417h28.202v19.308H61.404
	v165.612H37.708V352.577H18.75v-19.308h18.958v-10.147c0-38.375,25.114-44.899,50.006-44.899c8.535,0,22.747,2.892,27.729,4.823
	L110.938,302.36z M195.44,332.539c-3.093-0.961-8.299-1.688-15.876-1.688c-15.647,0-29.856,10.137-36.028,20.038v-17.617H119.37
	V465.09h24.165v-94.392c5.93-8.697,17.772-17.637,32.472-17.637c7.338,0,11.375,0.478,15.634,1.941L195.44,332.539z M246.23,284.235
	l-26.895-0.065l0.25,26.705l26.895,0.429L246.23,284.235z M221.024,465.069h24.166V333.269h-24.166V465.069z M383.487,404.955
	v-8.912c0-42.504-15.167-65.912-49.282-65.912c-34.364,0-60.194,17.858-60.194,71.209c0,51.192,24.653,65.916,63.501,65.916
	c15.647,0,36.032-2.422,42.902-4.829l-4.041-19.567c-7.11,1.688-24.162,3.625-33.174,3.625c-25.359,0-44.3-5.798-45.02-41.529
	H383.487z M331.354,348.951c16.824,0,27.006,14.243,26.784,38.156h-59.474C300.547,360.776,314.997,348.951,331.354,348.951
	 M522.82,465.084v-84.502c0-24.618-2.353-50.936-41.225-50.936c-21.561,0-34.832,11.102-44.318,17.613v-13.991h-24.162v131.815
	h24.162v-99.226c5.93-3.387,23.235-14.731,37.44-14.731c20.854,0,24.169,13.046,24.169,33.074v80.883H522.82z M658.741,465.069
	V283.056h-24.169v50.684c-7.818-1.931-11.617-2.889-23.691-2.889c-35.066,0-63.746,23.407-63.746,68.078
	c0,58.675,31.032,68.085,55.215,68.085c13.956,0,24.162-6.518,32.216-13.285v11.341H658.741z M634.572,433.947
	c-5.68,3.618-17.526,12.302-29.379,12.302c-19.436,0-34.125-12.552-34.125-46.601c0-26.304,10.676-48.041,39.342-48.041
	c11.355,0,18.482,0.727,24.155,2.176L634.572,433.947L634.572,433.947z M727.408,467.52c21.989,0,51.548-8.304,51.548-40.298
	c0-43.733-66.688-34.922-66.688-62.536c0-8.788,6.353-15.631,22.218-15.631c14.918,0,24.681,2.934,32.493,4.65l4.4-19.305
	c-6.345-2.446-20.267-5.612-35.655-5.612c-26.874,0-48.379,12.7-48.379,38.599c0,47.379,67.172,34.908,67.172,62.035
	c0,10.254-9.991,17.09-30.521,17.09c-10.262,0-26.384-2.684-36.651-4.877l-3.162,20.515C691.02,464.336,709.1,467.52,727.408,467.52
	"/>
</svg>
