<?xml version="1.0" encoding="utf-8"?>
<!-- Generator: Adobe Illustrator 16.2.0, SVG Export Plug-In . SVG Version: 6.00 Build 0)  -->
<!DOCTYPE svg PUBLIC "-//W3C//DTD SVG 1.1//EN" "http://www.w3.org/Graphics/SVG/1.1/DTD/svg11.dtd">
<svg version="1.1" id="Layer_1" xmlns="http://www.w3.org/2000/svg" xmlns:xlink="http://www.w3.org/1999/xlink" x="0px" y="0px"
	 width="800px" height="800px" viewBox="0 0 800 800" enable-background="new 0 0 800 800" xml:space="preserve">
<path fill="#8F7E74" d="M764.272,415.965H685.08v348.444c0,8.801-7.022,15.839-15.839,15.839H510.858
	c-8.809,0-15.839-7.038-15.839-15.839V495.156H304.959v269.253c0,8.801-7.03,15.839-15.838,15.839H130.737
	c-8.809,0-15.838-7.038-15.838-15.839V415.965H35.706c-6.164,0-12.319-3.527-14.949-9.684c-1.764-6.156-0.89-12.296,3.511-17.586
	L388.551,24.381c6.164-6.171,16.728-6.171,22.875,0l364.291,364.314c4.408,5.29,5.29,11.461,3.527,17.586
	C776.584,412.438,770.429,415.965,764.272,415.965z"/>
</svg>
