<?xml version="1.0" encoding="utf-8"?>
<!-- Generator: Adobe Illustrator 16.2.1, SVG Export Plug-In . SVG Version: 6.00 Build 0)  -->
<!DOCTYPE svg PUBLIC "-//W3C//DTD SVG 1.1//EN" "http://www.w3.org/Graphics/SVG/1.1/DTD/svg11.dtd">
<svg version="1.1" id="Layer_1" xmlns="http://www.w3.org/2000/svg" xmlns:xlink="http://www.w3.org/1999/xlink" x="0px" y="0px"
	 width="800px" height="800px" viewBox="0 0 800 800" enable-background="new 0 0 800 800" xml:space="preserve">
<path fill="#ED1B2E" d="M654.346,273.457c0-140.182-113.648-253.846-253.854-253.846c-140.198,0-253.838,113.665-253.838,253.846
	c0,44.046,11.243,85.421,30.955,121.518c0-0.016-0.016-0.016-0.024-0.032c68.419,129.37,166.099,310.367,206.338,367.143
	c8.061,11.355,10.02,17.721,16.569,17.721s8.1-5.901,15.682-16.489c39.679-55.337,138.294-238.045,207.225-368.375
	c0,0.016-0.016,0.016-0.016,0.032C643.104,358.878,654.346,317.503,654.346,273.457z"/>
</svg>
