<?xml version="1.0" encoding="utf-8"?>
<!-- Generator: Adobe Illustrator 16.2.1, SVG Export Plug-In . SVG Version: 6.00 Build 0)  -->
<!DOCTYPE svg PUBLIC "-//W3C//DTD SVG 1.1//EN" "http://www.w3.org/Graphics/SVG/1.1/DTD/svg11.dtd">
<svg version="1.1" id="Layer_1" xmlns="http://www.w3.org/2000/svg" xmlns:xlink="http://www.w3.org/1999/xlink" x="0px" y="0px"
	 width="800px" height="800px" viewBox="0 0 800 800" enable-background="new 0 0 800 800" xml:space="preserve">
<g>
	<path fill="#D5CEC8" d="M637.09,303.732L245.42,695.401c-1.75,1.738-3.524,2.607-5.275,3.477L41.232,778.067
		c-2.644,0.917-4.382,0.917-6.145,0.917c-4.395,0-7.919-1.738-11.444-4.394c-4.405-4.346-5.274-11.372-3.524-17.528l79.213-198.937
		c0.881-1.787,1.763-3.477,3.524-5.312l391.67-391.67L637.09,303.732z M765.626,107.451l-74.818-74.807
		c-19.362-18.506-49.275-18.506-67.77,0l-80.975,80.975l142.588,142.54l80.975-80.915
		C784.096,156.727,784.096,126.802,765.626,107.451z"/>
</g>
</svg>
