<?xml version="1.0" encoding="utf-8"?>
<!-- Generator: Adobe Illustrator 16.2.0, SVG Export Plug-In . SVG Version: 6.00 Build 0)  -->
<!DOCTYPE svg PUBLIC "-//W3C//DTD SVG 1.1//EN" "http://www.w3.org/Graphics/SVG/1.1/DTD/svg11.dtd">
<svg version="1.1" id="Layer_1" xmlns="http://www.w3.org/2000/svg" xmlns:xlink="http://www.w3.org/1999/xlink" x="0px" y="0px"
	 width="800px" height="800px" viewBox="0 0 800 800" enable-background="new 0 0 800 800" xml:space="preserve">
<g>
	<path fill="#8F7E74" d="M641.557,673.692h-28.484c-0.014,15.8-6.343,29.875-16.69,40.278
		c-10.403,10.362-24.479,16.662-40.278,16.69H157.322c-15.807-0.028-29.882-6.328-40.279-16.69
		c-10.355-10.403-16.676-24.479-16.69-40.278V274.904c0.014-15.807,6.335-29.882,16.69-40.279
		c10.396-10.369,24.472-16.676,40.279-16.69h398.781c15.8,0.014,29.875,6.321,40.278,16.69
		c10.348,10.396,16.677,24.472,16.69,40.279v398.788H641.557h28.484V274.904c-0.015-62.936-51.017-113.924-113.938-113.938H157.322
		C94.401,160.98,43.398,211.969,43.385,274.904v398.788c0.014,62.921,51.016,113.909,113.938,113.938h398.781
		c62.921-0.028,113.923-51.017,113.938-113.938H641.557z"/>
</g>
</svg>
